<svg width="32" height="32" viewBox="0 0 32 32" fill="none" xmlns="http://www.w3.org/2000/svg">
<path fill-rule="evenodd" clip-rule="evenodd" d="M18.5 9.75H13.5C11.4289 9.75 9.75 11.4289 9.75 13.5V18.5C9.75 20.5711 11.4289 22.25 13.5 22.25H18.5C20.5711 22.25 22.25 20.5711 22.25 18.5V13.5C22.25 11.4289 20.5711 9.75 18.5 9.75ZM11 13.5C11 12.1193 12.1193 11 13.5 11H18.5C19.8807 11 21 12.1193 21 13.5V18.5C21 19.8807 19.8807 21 18.5 21H13.5C12.1193 21 11 19.8807 11 18.5V13.5ZM16 19.125C14.2741 19.125 12.875 17.7259 12.875 16C12.875 14.2741 14.2741 12.875 16 12.875C17.7259 12.875 19.125 14.2741 19.125 16C19.125 17.7259 17.7259 19.125 16 19.125ZM16 17.875C17.0355 17.875 17.875 17.0355 17.875 16C17.875 14.9645 17.0355 14.125 16 14.125C14.9645 14.125 14.125 14.9645 14.125 16C14.125 17.0355 14.9645 17.875 16 17.875ZM19.75 12.875C19.75 13.2202 19.4702 13.5 19.125 13.5C18.7798 13.5 18.5 13.2202 18.5 12.875C18.5 12.5298 18.7798 12.25 19.125 12.25C19.4702 12.25 19.75 12.5298 19.75 12.875Z" fill="white"/>
<circle cx="16" cy="16" r="11" stroke="white" stroke-width="2"/>
</svg>
