<svg width="32" height="32" viewBox="0 0 32 32" fill="none" xmlns="http://www.w3.org/2000/svg">
<path fill-rule="evenodd" clip-rule="evenodd" d="M21.6997 11.3177L22.5839 11.4209L22.1865 12.2175C21.9926 12.606 21.7986 12.9944 21.6044 13.3829C21.5814 13.4651 21.5409 13.5373 21.481 13.6312C21.456 13.6704 21.3706 13.7952 21.3666 13.8012C21.344 13.8351 21.3273 13.8617 21.3153 13.8831V15.376C21.3153 19.1959 17.6185 21.6234 14.1272 21.6234C13.4128 21.6234 12.87 21.5892 12.2485 21.4535C11.2257 21.2303 10.4645 20.7867 10.1162 20.0112L9.75763 19.2129L10.6291 19.1328C11.4175 19.0603 12.1011 18.9101 12.626 18.709C11.1849 18.4772 10.3773 17.8442 10.3773 16.6556V16.0306H11.0023C11.1396 16.0306 11.2634 16.0194 11.3741 15.999C10.2925 15.3523 9.75076 14.3149 9.75076 12.876C9.75065 12.8146 9.75065 12.8146 9.75028 12.749C9.74621 12.0238 9.78517 11.6362 9.98372 11.1416C10.111 10.8246 10.2949 10.5312 10.5424 10.2623L11.0141 9.75L11.4726 10.274C12.9837 12.001 14.4775 13.0487 16.0026 13.1755C16.0091 11.5819 17.2135 10.376 18.8152 10.376C19.5619 10.376 20.2393 10.6594 20.7715 11.1705C21.0629 11.2303 21.3723 11.2794 21.6997 11.3177ZM20.3179 12.3513L20.1263 12.3079L19.994 12.1627C19.674 11.8116 19.2725 11.626 18.8152 11.626C17.9009 11.626 17.2526 12.2774 17.2526 13.1885C17.2526 13.3373 17.2487 13.4309 17.2302 13.5538C17.1562 14.0445 16.881 14.4385 16.3151 14.4385C14.4413 14.4385 12.7508 13.4346 11.1024 11.7202C11.0175 11.9785 10.9975 12.244 11.0003 12.742C11.0006 12.8086 11.0006 12.8086 11.0008 12.876C11.0008 14.156 11.5193 14.8561 12.7472 15.2464L13.1828 15.3848V15.842C13.1828 16.3964 12.6576 16.9182 11.8892 17.152C12.2414 17.4192 12.9619 17.5635 14.1274 17.5635H14.7524V18.1885C14.7524 19.0839 13.7235 19.785 12.1692 20.1512C12.6761 20.3065 13.351 20.3734 14.1272 20.3734C17.0112 20.3734 20.0653 18.368 20.0653 15.376V13.8135C20.0653 13.6298 20.1185 13.4705 20.207 13.3047C20.2415 13.24 20.2796 13.1782 20.3266 13.1077C20.3354 13.0945 20.3682 13.0464 20.3943 13.008L20.4438 12.9089C20.5241 12.7484 20.6043 12.5879 20.6845 12.4274C20.5599 12.4037 20.4377 12.3784 20.3179 12.3513Z" fill="white"/>
<circle cx="16" cy="16" r="11" stroke="white" stroke-width="2"/>
</svg>
